# xmcd
#
# Track frame offsets:
#	150
#	13931
#	27772
#	43053
#	54928
#	68229
#	79119
#	92700
#	106498
#	117794
#	132740
#	146783
#	160854
#	175039
#	187382
#	203187
#	217733
#	231465
#	242402
#	256005
#	270362
#	280582
#	297515
#	311507
#	325522
#	344653
#
# Disc length: 4790 seconds
#
# Revision: 0
# Processed by: cddbd v1.4PL0 Copyright (c) Steve Scherf et al.
# Submitted via: EasyCDDAExtractor 4.5.0.2
#
DISCID=7e12b41a
DTITLE=Ta Xrysa Laika No 2
DYEAR=1900
DGENRE=
TTITLE0=упойяимесаи  -  диомусиоу
TTITLE1=йаье йаье  -  йафамтфидгс
TTITLE2=ма еива то йоуяацио  -  диомусиоу
TTITLE3=ацапг лоу епийимдумг  -  диомусиоу
TTITLE4=г ажикотилг  -  диомусиоу
TTITLE5=гтам ьеутийа  -  диомусиоу
TTITLE6=дем поукаы тгм йаядиа лоу  -  цабакас
TTITLE7=о жамтаяос  -  диомусиоу
TTITLE8=осо анифеис есу  -  аццекопоукос
TTITLE9=осо ле лакымеис  -  цабакас
TTITLE10=циати йаке цеитомисса  -  диомусиоу
TTITLE11=дем ха намацапгсы  -  йафамтфидгс
TTITLE12=есу еисаи ста ьгка  -  лпихийытсгс
TTITLE13=о танитфгс  -  диомусиоу
TTITLE14=йакутеяа лафи соу йаи тяеккос  -  диомусиоу
TTITLE15=молифа пыс гтам жикои  -  йафамтфидгс
TTITLE16=то текеутаио бяаду лоу Live  -  йафамтфидгс
TTITLE17=кеце ле пакиопаидо  -  диомусиоу
TTITLE18=фгкеуы та поукиа  -  йафамтфидгс
TTITLE19=амтикакоум ои жукайес  -  лпихийытсгс
TTITLE20=тоу йослоу то пеяицеко  -  диомусиоу
TTITLE21=о сакомийиос  -  диомусиоу
TTITLE22=паяе та вмаяиа лоу  -  йафамтфидгс
TTITLE23=ецы ма деис  -  диомусиоу
TTITLE24=та лауяа латиа соу  -  аццекопоукос
TTITLE25=лг лоу нупмас то паяекхом  -  диомусиоу
EXTD=
EXTT0=
EXTT1=
EXTT2=
EXTT3=
EXTT4=
EXTT5=
EXTT6=
EXTT7=
EXTT8=
EXTT9=
EXTT10=
EXTT11=
EXTT12=
EXTT13=
EXTT14=
EXTT15=
EXTT16=
EXTT17=
EXTT18=
EXTT19=
EXTT20=
EXTT21=
EXTT22=
EXTT23=
EXTT24=
EXTT25=
PLAYORDER=
